<?xml version="1.0" encoding="UTF-8"?>
<svg version="1.1" xmlns="http://www.w3.org/2000/svg" width="177" height="201">
<path d="M0 0 C0.91035504 2.73106511 1.12215713 4.29893239 1.11352539 7.10424805 C1.11344986 7.92487228 1.11337433 8.74549652 1.11329651 9.59098816 C1.10813522 10.47232925 1.10297394 11.35367035 1.09765625 12.26171875 C1.0962413 13.16751175 1.09482635 14.07330475 1.09336853 15.00654602 C1.08777001 17.90023091 1.07521781 20.79383849 1.0625 23.6875 C1.05748481 25.64908742 1.05292193 27.61067606 1.04882812 29.57226562 C1.03780107 34.38154021 1.02053747 39.190757 1 44 C1.68707031 43.97679687 2.37414062 43.95359375 3.08203125 43.9296875 C3.98308594 43.91164062 4.88414063 43.89359375 5.8125 43.875 C6.70582031 43.85179687 7.59914063 43.82859375 8.51953125 43.8046875 C11 44 11 44 14 46 C13.63728356 51.12575606 10.78660404 53.91313261 7.375 57.4375 C6.83101563 58.01081055 6.28703125 58.58412109 5.7265625 59.17480469 C-5.0791793 70.45008169 -5.0791793 70.45008169 -10 71 C-15.70579568 68.43173002 -20.47138073 62.8065058 -24.9375 58.5 C-25.51749756 57.95456543 -26.09749512 57.40913086 -26.69506836 56.84716797 C-30.17864442 53.39823635 -31.7614281 51.11005621 -32 46 C-29 44 -29 44 -19 44 C-19 36.08 -19 28.16 -19 20 C-29.38879764 23.46293255 -32.5969179 24.86145128 -37.3125 34.125 C-41.44404455 42.82184706 -42.47958812 50.36622999 -39.4375 59.6875 C-36.26610347 67.47689499 -31.56997352 72.82259859 -23.89453125 76.30859375 C-14.36608197 79.78598658 -1.4363849 79.78264129 7.75 75.5625 C14.14581471 71.77338288 18.19355748 66.77710709 21.375 60.125 C22.14864632 56.25676838 22.43847198 52.42461902 22.65625 48.48828125 C23 46 23 46 25 43 C27.90541905 42.03152698 29.96637454 41.80417188 33 41.75 C33.86625 41.72421875 34.7325 41.6984375 35.625 41.671875 C38 42 38 42 39.78515625 43.2109375 C42.35096751 46.98952772 41.47697458 51.64827686 41 56 C38.33029609 68.73011354 32.20385953 78.86949364 22 87 C14.97169007 91.22664687 8.00212183 94.18571827 0 96 C0.24234375 96.57967529 0.4846875 97.15935059 0.734375 97.7565918 C1.83204411 100.39653879 2.91611395 103.04186596 4 105.6875 C4.3815625 106.59951172 4.763125 107.51152344 5.15625 108.45117188 C5.5171875 109.33740234 5.878125 110.22363281 6.25 111.13671875 C6.75273437 112.35427856 6.75273437 112.35427856 7.265625 113.59643555 C8.05642814 116.18468585 8.13400818 118.30936705 8 121 C3.70610017 123.14694991 -2.03328579 122.18585465 -6.8034668 122.18530273 C-8.92582281 122.18748798 -11.04765795 122.2056452 -13.16992188 122.22460938 C-14.51822739 122.22754367 -15.86653537 122.22952823 -17.21484375 122.23046875 C-19.05743774 122.23663208 -19.05743774 122.23663208 -20.93725586 122.24291992 C-24 122 -24 122 -27 120 C-25.44535079 111.52009523 -22.81506172 103.22259259 -18 96 C-19.2375 95.79375 -20.475 95.5875 -21.75 95.375 C-34.3907249 92.46703981 -45.96414732 84.82704234 -53.015625 73.8671875 C-59.59646332 61.12080648 -61.65025091 46.35946652 -57.4375 32.4375 C-52.68907462 20.41489106 -43.06442919 9.67655264 -31.546875 3.734375 C-23.02257289 0.14237348 -8.80272429 -4.40136215 0 0 Z " fill="#F4F4F2" transform="translate(96,40)"/>
<path d="M0 0 C-0.99 0.495 -0.99 0.495 -2 1 C-1.63648438 1.86951294 -1.63648438 1.86951294 -1.265625 2.7565918 C-0.16795589 5.39653879 0.91611395 8.04186596 2 10.6875 C2.3815625 11.59951172 2.763125 12.51152344 3.15625 13.45117188 C3.69765625 14.78051758 3.69765625 14.78051758 4.25 16.13671875 C4.58515625 16.94842529 4.9203125 17.76013184 5.265625 18.59643555 C6.05642814 21.18468585 6.13400818 23.30936705 6 26 C1.70610017 28.14694991 -4.03328579 27.18585465 -8.8034668 27.18530273 C-10.92582281 27.18748798 -13.04765795 27.2056452 -15.16992188 27.22460938 C-16.51822739 27.22754367 -17.86653537 27.22952823 -19.21484375 27.23046875 C-21.05743774 27.23663208 -21.05743774 27.23663208 -22.93725586 27.24291992 C-26 27 -26 27 -29 25 C-27.44535079 16.52009523 -24.81506172 8.22259259 -20 1 C-16.953125 0.48828125 -16.953125 0.48828125 -13.25 0.3125 C-11.43242188 0.21388672 -11.43242188 0.21388672 -9.578125 0.11328125 C-6.38192253 0.01209143 -3.19745155 -0.02452033 0 0 Z " fill="#3EA253" transform="translate(98,135)"/>
<path d="M0 0 C1.79158489 -0.02696365 3.58328473 -0.04637917 5.375 -0.0625 C6.37273437 -0.07410156 7.37046875 -0.08570313 8.3984375 -0.09765625 C11 0 11 0 13 1 C13.91035504 3.73106511 14.12215713 5.29893239 14.11352539 8.10424805 C14.11344986 8.92487228 14.11337433 9.74549652 14.11329651 10.59098816 C14.10813522 11.47232925 14.10297394 12.35367035 14.09765625 13.26171875 C14.0962413 14.16751175 14.09482635 15.07330475 14.09336853 16.00654602 C14.08777001 18.90023091 14.07521781 21.79383849 14.0625 24.6875 C14.05748481 26.64908742 14.05292193 28.61067606 14.04882812 30.57226562 C14.03780107 35.38154021 14.02053747 40.190757 14 45 C16.64 45 19.28 45 22 45 C22.33 45.66 22.66 46.32 23 47 C19.04 47 15.08 47 11 47 C11 32.15 11 17.3 11 2 C7.37 2 3.74 2 0 2 C0 1.34 0 0.68 0 0 Z " fill="#D1CFD1" transform="translate(83,39)"/>
<path d="M0 0 C1.13555377 3.4066613 0.85394794 4.2944812 -0.1875 7.625 C-0.42855469 8.42164063 -0.66960937 9.21828125 -0.91796875 10.0390625 C-2.40484098 14.10783199 -4.24063394 18.04142636 -6 22 C4.23 22 14.46 22 25 22 C24.34 21.01 23.68 20.02 23 19 C22.74239721 16.30547479 22.91099947 13.71451625 23 11 C25.84880302 15.27320453 27.28990619 17.78168857 27 23 C22.70610017 25.14694991 16.96671421 24.18585465 12.1965332 24.18530273 C10.07417719 24.18748798 7.95234205 24.2056452 5.83007812 24.22460938 C4.48177261 24.22754367 3.13346463 24.22952823 1.78515625 24.23046875 C-0.05743774 24.23663208 -0.05743774 24.23663208 -1.93725586 24.24291992 C-5 24 -5 24 -8 22 C-4.85714286 4.85714286 -4.85714286 4.85714286 0 0 Z " fill="#22582A" transform="translate(77,138)"/>
<path d="M0 0 C2.31966166 2.84685749 3.91581154 5.4763875 5 9 C4.67 9.99 4.34 10.98 4 12 C3.01 11.67 2.02 11.34 1 11 C0.34 11.66 -0.32 12.32 -1 13 C-1.99 9.7 -2.98 6.4 -4 3 C-6.64 3 -9.28 3 -12 3 C-11.67 2.34 -11.34 1.68 -11 1 C-8.02148438 1.04882812 -8.02148438 1.04882812 -5.04296875 1.09765625 C-2.79694539 1.08263217 -2.79694539 1.08263217 0 0 Z " fill="#498B57" transform="translate(95,137)"/>
<path d="M0 0 C0.12375 0.639375 0.2475 1.27875 0.375 1.9375 C0.58125 2.618125 0.7875 3.29875 1 4 C1.66 4.33 2.32 4.66 3 5 C3 5.66 3 6.32 3 7 C2.34 7 1.68 7 1 7 C1.144375 7.61746094 1.28875 8.23492187 1.4375 8.87109375 C2.7197599 14.72140455 3.19308096 20.01449037 3 26 C2.01 25.67 1.02 25.34 0 25 C-1.06695088 22.19954159 -1.12841295 19.49690786 -1.1328125 16.5234375 C-1.13410156 15.688125 -1.13539062 14.8528125 -1.13671875 13.9921875 C-1.13285156 13.12851563 -1.12898438 12.26484375 -1.125 11.375 C-1.12886719 10.50359375 -1.13273437 9.6321875 -1.13671875 8.734375 C-1.13542969 7.90164062 -1.13414063 7.06890625 -1.1328125 6.2109375 C-1.13168457 5.45087402 -1.13055664 4.69081055 -1.12939453 3.90771484 C-1 2 -1 2 0 0 Z " fill="#DAD9DB" transform="translate(38,77)"/>
<path d="M0 0 C1.32 0.33 2.64 0.66 4 1 C4 1.99 4 2.98 4 4 C4.88300781 3.9278125 5.76601562 3.855625 6.67578125 3.78125 C14.13716579 3.20421489 21.51697331 2.86255665 29 3 C29 3.66 29 4.32 29 5 C18.77 5 8.54 5 -2 5 C-1.34 3.35 -0.68 1.7 0 0 Z " fill="#4E985E" transform="translate(73,155)"/>
<path d="M0 0 C0.33 0 0.66 0 1 0 C1.68313158 9.68528774 0.9451499 17.09255066 -5.4453125 24.7265625 C-6.8125 26.125 -6.8125 26.125 -9 28 C-9.66 27.67 -10.32 27.34 -11 27 C-10.51789063 26.41992188 -10.03578125 25.83984375 -9.5390625 25.2421875 C-3.62797551 17.93174114 -1.86332414 12.62700391 -1.24609375 3.29296875 C-1 1 -1 1 0 0 Z " fill="#BDBBC1" transform="translate(120,85)"/>
<path d="M0 0 C0.66 0.33 1.32 0.66 2 1 C0 4 -2 7 -4 10 C-4.86625 9.67 -5.7325 9.34 -6.625 9 C-9.95718275 8.01268659 -12.55159538 7.83579026 -16 8 C-16 7.34 -16 6.68 -16 6 C-15.43152344 5.90203125 -14.86304687 5.8040625 -14.27734375 5.703125 C-10.13984097 4.90187237 -6.68285225 4.01984557 -3.0625 1.8125 C-2.051875 1.214375 -1.04125 0.61625 0 0 Z " fill="#E4E3E4" transform="translate(107,113)"/>
<path d="M0 0 C-1.85262731 2.367246 -2.89722599 2.97542361 -5.875 3.6875 C-8.61768471 3.96176847 -11.2488904 4 -14 4 C-15.34332728 4.29044914 -16.68225804 4.60955794 -18 5 C-18.66 3.68 -19.32 2.36 -20 1 C-17.79187393 0.83060951 -15.58348776 0.66460778 -13.375 0.5 C-12.14523438 0.4071875 -10.91546875 0.314375 -9.6484375 0.21875 C-6.41962143 0.02515931 -3.23321325 -0.03979339 0 0 Z " fill="#578E5D" transform="translate(98,135)"/>
<path d="M0 0 C2.84880302 4.27320453 4.28990619 6.78168857 4 12 C1.47946405 13.26026798 0.1457902 12.91874445 -2.625 12.5625 C-3.44226563 12.46066406 -4.25953125 12.35882813 -5.1015625 12.25390625 C-5.72804688 12.17011719 -6.35453125 12.08632812 -7 12 C-7 11.67 -7 11.34 -7 11 C-4.03 11 -1.06 11 2 11 C1.34 10.01 0.68 9.02 0 8 C-0.25760279 5.30547479 -0.08900053 2.71451625 0 0 Z " fill="#2D6439" transform="translate(100,149)"/>
<path d="M0 0 C2.4294516 3.6441774 2.16179575 5.71241272 2 10 C0.37536158 10.05395478 -1.24978541 10.09277195 -2.875 10.125 C-3.77992187 10.14820312 -4.68484375 10.17140625 -5.6171875 10.1953125 C-8 10 -8 10 -10 8 C-7.03 8 -4.06 8 -1 8 C-0.67 5.36 -0.34 2.72 0 0 Z " fill="#C2C1C1" transform="translate(78,76)"/>
<path d="M0 0 C0.25 6.625 0.25 6.625 -2 10 C-2.33 7.69 -2.66 5.38 -3 3 C-5.64 3.66 -8.28 4.32 -11 5 C-11 4.34 -11 3.68 -11 3 C-9.73160474 2.49384702 -8.46016898 1.99530901 -7.1875 1.5 C-6.12595703 1.08234375 -6.12595703 1.08234375 -5.04296875 0.65625 C-3 0 -3 0 0 0 Z " fill="#BAB5B6" transform="translate(80,57)"/>
<path d="M0 0 C1 3 1 3 -0.21484375 5.91796875 C-0.78332031 6.99691406 -1.35179687 8.07585937 -1.9375 9.1875 C-2.50339844 10.27417969 -3.06929687 11.36085938 -3.65234375 12.48046875 C-4.09707031 13.31191406 -4.54179687 14.14335938 -5 15 C-5.66 15 -6.32 15 -7 15 C-7 14.01 -7 13.02 -7 12 C-6.34 12 -5.68 12 -5 12 C-4.87625 11.278125 -4.7525 10.55625 -4.625 9.8125 C-4.0095069 7.04278106 -3.11555626 4.6029646 -2 2 C-1.34 2 -0.68 2 0 2 C0 1.34 0 0.68 0 0 Z " fill="#B7B5BF" transform="translate(134,101)"/>
<path d="M0 0 C2.58322859 1.0039859 3.79362004 1.66431407 5.265625 4.05859375 C5.59046875 4.84363281 5.9153125 5.62867187 6.25 6.4375 C6.58515625 7.21996094 6.9203125 8.00242187 7.265625 8.80859375 C8 11 8 11 8 14 C5.29597943 11.60523691 3.88308282 9.11049494 2.3125 5.875 C1.87550781 4.98554687 1.43851563 4.09609375 0.98828125 3.1796875 C0 1 0 1 0 0 Z " fill="#C5C2C4" transform="translate(39,104)"/>
<path d="M0 0 C3.73724772 0.55153215 5.2235991 1.96149761 7.625 4.8125 C8.21539062 5.49957031 8.80578125 6.18664062 9.4140625 6.89453125 C10.89910579 8.86605423 11.98239206 10.75823992 13 13 C8.11950075 9.0580583 3.9419417 4.88049925 0 0 Z " fill="#BCBBBD" transform="translate(66,92)"/>
<path d="M0 0 C4.29 0.33 8.58 0.66 13 1 C13 1.66 13 2.32 13 3 C11.20841511 3.02696365 9.41671527 3.04637917 7.625 3.0625 C6.62726563 3.07410156 5.62953125 3.08570312 4.6015625 3.09765625 C2 3 2 3 0 2 C0 1.34 0 0.68 0 0 Z " fill="#DDDBDB" transform="translate(75,118)"/>
<path d="M0 0 C0.33 0 0.66 0 1 0 C1.05410687 1.77049689 1.09284119 3.54146849 1.125 5.3125 C1.14820313 6.29863281 1.17140625 7.28476563 1.1953125 8.30078125 C1 11 1 11 -1 14 C-2.59789351 9.04653013 -1.28306814 4.86717585 0 0 Z " fill="#C4C6CA" transform="translate(136,85)"/>
<path d="M0 0 C1.39796892 4.19390675 -0.18301213 6.08648766 -2 10 C-2.33 10.99 -2.66 11.98 -3 13 C-3.99 12.67 -4.98 12.34 -6 12 C-5.37853192 10.56096954 -4.75267941 9.12383207 -4.125 7.6875 C-3.77695312 6.88699219 -3.42890625 6.08648437 -3.0703125 5.26171875 C-2 3 -2 3 0 0 Z " fill="#D8D5DA" transform="translate(44,63)"/>
<path d="M0 0 C0.66 0 1.32 0 2 0 C0.64994369 5.67023649 -1.8157229 8.17957309 -6 12 C-6.66 11.67 -7.32 11.34 -8 11 C-7.50628906 10.37351562 -7.01257813 9.74703125 -6.50390625 9.1015625 C-5.54291016 7.87566406 -5.54291016 7.87566406 -4.5625 6.625 C-3.92441406 5.81289062 -3.28632812 5.00078125 -2.62890625 4.1640625 C-0.97776453 2.10601894 -0.97776453 2.10601894 0 0 Z " fill="#D2CED3" transform="translate(117,101)"/>
<path d="M0 0 C1.57554035 2.88628401 2.46276373 5.53342384 3.125 8.75 C3.29257812 9.54921875 3.46015625 10.3484375 3.6328125 11.171875 C3.81457031 12.07679687 3.81457031 12.07679687 4 13 C3.34 13 2.68 13 2 13 C-1.62870159 4.738041 -1.62870159 4.738041 0 0 Z " fill="#D5D3D0" transform="translate(53,90)"/>
<path d="M0 0 C0.99 0.33 1.98 0.66 3 1 C3 1.66 3 2.32 3 3 C3.99 3.33 4.98 3.66 6 4 C4.35 5.32 2.7 6.64 1 8 C0.67 5.36 0.34 2.72 0 0 Z " fill="#E9E8E6" transform="translate(60,60)"/>
<path d="M0 0 C0.99 0.33 1.98 0.66 3 1 C3 2.65 3 4.3 3 6 C1.68 6.33 0.36 6.66 -1 7 C-1 6.34 -1 5.68 -1 5 C-1.99 4.34 -2.98 3.68 -4 3 C-2.35 3 -0.7 3 1 3 C0.67 2.01 0.34 1.02 0 0 Z " fill="#FBF9FA" transform="translate(105,84)"/>
<path d="M0 0 C2.83374881 3.20336822 3.5205537 5.78087253 4 10 C3.01 9.67 2.02 9.34 1 9 C-0.4783226 6.04335481 -0.06032783 3.25770263 0 0 Z " fill="#174E2E" transform="translate(96,139)"/>
<path d="M0 0 C-2.39509338 2.89932357 -4.31245243 3.50168276 -8 4 C-8 3.34 -8 2.68 -8 2 C-8.99 1.67 -9.98 1.34 -11 1 C-7.26562152 0.12132271 -3.83225427 -0.08912219 0 0 Z " fill="#6F8971" transform="translate(98,135)"/>
<path d="M0 0 C0.66 0.99 1.32 1.98 2 3 C-0.64 5.64 -3.28 8.28 -6 11 C-6 7.39426104 -5.18292538 6.58663434 -3 3.8125 C-2.443125 3.09707031 -1.88625 2.38164063 -1.3125 1.64453125 C-0.879375 1.10183594 -0.44625 0.55914062 0 0 Z " fill="#E1D4D5" transform="translate(126,114)"/>
<path d="M0 0 C0.66 0.33 1.32 0.66 2 1 C2 1.99 2 2.98 2 4 C-0.35438733 5.42944945 -1.48032433 6.08661261 -4.25 5.625 C-4.8275 5.41875 -5.405 5.2125 -6 5 C-4.02 3.35 -2.04 1.7 0 0 Z " fill="#D5D2D7" transform="translate(56,49)"/>
<path d="M0 0 C0 0.66 0 1.32 0 2 C-0.66 2 -1.32 2 -2 2 C-2 2.66 -2 3.32 -2 4 C-3.98 4.33 -5.96 4.66 -8 5 C-3.16129032 0 -3.16129032 0 0 0 Z " fill="#D6D5E0" transform="translate(66,44)"/>
</svg>
