<?xml version="1.0" standalone="no"?>
<!DOCTYPE svg PUBLIC "-//W3C//DTD SVG 20010904//EN"
 "http://www.w3.org/TR/2001/REC-SVG-20010904/DTD/svg10.dtd">
<svg version="1.0" xmlns="http://www.w3.org/2000/svg"
 width="64.000000pt" height="64.000000pt" viewBox="0 0 64.000000 64.000000"
 preserveAspectRatio="xMidYMid meet">

<g transform="translate(0.000000,64.000000) scale(0.100000,-0.100000)"
fill="#000000" stroke="none">
<path d="M93 629 c-43 -12 -80 -60 -88 -112 -4 -23 -5 -128 -3 -233 2 -161 6
-194 21 -217 33 -50 62 -61 174 -65 l103 -4 0 91 c0 84 1 91 20 91 18 0 20 -7
20 -67 l0 -68 21 32 c12 18 25 33 30 33 14 0 11 -6 -21 -58 l-29 -47 67 -3
c106 -5 151 5 188 42 42 42 46 75 42 312 -2 161 -6 194 -21 217 -33 50 -62 61
-174 65 l-103 4 0 -63 0 -64 21 33 c12 17 25 32 31 32 12 0 11 -1 -27 -68 -18
-31 -37 -52 -47 -52 -16 0 -18 11 -18 90 l0 90 -87 -1 c-49 0 -102 -5 -120
-10z m1 -281 l28 -63 30 63 c21 44 35 62 49 62 17 0 19 -8 19 -90 0 -83 -1
-90 -20 -90 -17 0 -20 7 -20 48 l-1 47 -21 -47 c-11 -27 -27 -48 -35 -48 -8 0
-24 21 -36 48 l-22 47 -3 -47 c-2 -34 -7 -48 -18 -48 -11 0 -14 18 -14 90 0
79 2 90 18 90 12 0 26 -20 46 -62z m281 37 c35 -34 35 -96 0 -130 -20 -21 -34
-25 -80 -25 l-55 0 0 90 0 90 55 0 c46 0 60 -4 80 -25z m111 -41 l28 -66 29
66 c21 47 35 66 48 66 17 0 19 -9 19 -90 0 -83 -1 -90 -20 -90 -17 0 -20 7
-21 43 l0 42 -22 -42 c-11 -24 -27 -43 -34 -43 -8 0 -22 20 -33 45 -11 25 -21
45 -23 45 -3 0 -2 -20 1 -45 4 -41 3 -45 -17 -45 -20 0 -21 5 -21 90 0 82 2
90 19 90 14 0 26 -18 47 -66z"/>
<path d="M280 320 l0 -61 32 3 c71 7 71 109 0 116 l-32 3 0 -61z"/>
</g>
</svg>
